<svg xmlns="http://www.w3.org/2000/svg" version="1.1" xmlns:xlink="http://www.w3.org/1999/xlink" xmlns:svgjs="http://svgjs.dev/svgjs" width="1000" height="1000" viewBox="0 0 1000 1000"><rect width="1000" height="1000" fill="#1b4571"></rect><g transform="matrix(0.7,0,0,0.7,149.57575757575756,384.9281151448547)"><svg viewBox="0 0 396 131" data-background-color="#1b4571" preserveAspectRatio="xMidYMid meet" height="330" width="1000" xmlns="http://www.w3.org/2000/svg" xmlns:xlink="http://www.w3.org/1999/xlink"><g id="tight-bounds" transform="matrix(1,0,0,1,0.2400000000000091,-0.24244174706427657)"><svg viewBox="0 0 395.52 131.4852256603802" height="131.4852256603802" width="395.52"><g><svg viewBox="0 0 397.49759999999986 132.14265178868206" height="131.4852256603802" width="395.52"><g><rect width="397.49759999999986" height="3.780036131869572" x="0" y="67.82341705860041" fill="#ffffff" opacity="1" stroke-width="0" stroke="transparent" fill-opacity="1" class="rect-o-0" data-fill-palette-color="primary" rx="1%" id="o-0" data-palette-color="#ffffff"></rect></g><g><rect width="397.49759999999986" height="3.780036131869572" x="0" y="76.55114446255058" fill="#ffffff" opacity="1" stroke-width="0" stroke="transparent" fill-opacity="1" class="rect-o-1" data-fill-palette-color="primary" rx="1%" id="o-1" data-palette-color="#ffffff"></rect></g><g transform="matrix(1,0,0,1,0.9887999999999693,90.22656313858133)"><svg viewBox="0 0 395.5199999999999 41.91608865010074" height="41.91608865010074" width="395.5199999999999"><g id="textblocktransform"><svg viewBox="0 0 395.5199999999999 41.91608865010074" height="41.91608865010074" width="395.5199999999999" id="textblock"><g><svg viewBox="0 0 395.5199999999999 41.91608865010074" height="41.91608865010074" width="395.5199999999999"><g transform="matrix(1,0,0,1,0,0)"><svg width="395.5199999999999" viewBox="2.450000047683716 -37.75 372.2200012207031 39.45000076293945" height="41.91608865010074" data-palette-color="#ffffff"><path d="M2.45-31.15L2.45-36.3 26.65-36.3 26.65-31.15 17.1-31.15 17.1 0 11.75 0 11.75-31.15 2.45-31.15ZM34.2-36.3L44.15-36.3Q47-36.3 49.42-35.52 51.85-34.75 53.57-33.3 55.3-31.85 56.27-29.73 57.25-27.6 57.25-24.8L57.25-24.8Q57.25-22.65 56.6-20.55 55.95-18.45 54.5-16.75 53.05-15.05 50.7-14.03 48.35-13 44.85-13L44.85-13 39.55-13 39.55 0 34.2 0 34.2-36.3ZM39.55-18.1L44.75-18.1Q46.8-18.1 48.17-18.75 49.55-19.4 50.32-20.38 51.1-21.35 51.42-22.48 51.75-23.6 51.75-24.65L51.75-24.65Q51.75-25.65 51.42-26.75 51.1-27.85 50.32-28.85 49.55-29.85 48.25-30.5 46.95-31.15 45.05-31.15L45.05-31.15 39.55-31.15 39.55-18.1ZM44.55-14.85L50.9-15 60.3 0 54.1 0 44.55-14.85ZM69 0L63.74 0 79.69-37.75 80-37.75 95.94 0 89.84 0 78.25-29.4 82.09-31.95 69 0ZM71.84-9L73.44-13.6 86.34-13.6 88.19-9 71.84-9ZM94.29-36.3L100.64-36.3 112.34-7.1 109.29-7.65 120.24-36.3 126.54-36.3 110.39 1.7 94.29-36.3ZM133.54 0L133.54-36.3 157.39-36.3 157.39-31.15 138.89-31.15 138.89-20.8 155.34-20.8 155.34-15.65 138.89-15.65 138.89-5.15 158.09-5.15 158.09 0 133.54 0ZM166.29 0L166.29-36.3 171.64-36.3 171.64-5.15 189.79-5.15 189.79 0 166.29 0ZM218.63 0L213.48 0 213.48-37.5 213.53-37.5 232.83-10.15 230.53-10.65 249.73-37.5 249.83-37.5 249.83 0 244.53 0 244.53-25.45 244.88-22.7 231.48-3.75 231.38-3.75 217.73-22.7 218.63-25.2 218.63 0ZM260.03 0L260.03-36.3 283.88-36.3 283.88-31.15 265.38-31.15 265.38-20.8 281.83-20.8 281.83-15.65 265.38-15.65 265.38-5.15 284.58-5.15 284.58 0 260.03 0ZM304.63 0L292.78 0 292.78-36.3 302.88-36.3Q308.28-36.3 312.08-34.65 315.88-33 318.2-30.3 320.53-27.6 321.6-24.3 322.68-21 322.68-17.65L322.68-17.65Q322.68-13.6 321.23-10.35 319.78-7.1 317.28-4.78 314.78-2.45 311.53-1.23 308.28 0 304.63 0L304.63 0ZM298.13-31.15L298.13-5.15 303.63-5.15Q306.58-5.15 309.05-6 311.53-6.85 313.35-8.5 315.18-10.15 316.18-12.55 317.18-14.95 317.18-18.05L317.18-18.05Q317.18-21.4 316.05-23.88 314.93-26.35 313.08-27.98 311.23-29.6 308.95-30.38 306.68-31.15 304.33-31.15L304.33-31.15 298.13-31.15ZM330.63 0L330.63-36.3 335.98-36.3 335.98 0 330.63 0ZM347.72 0L342.47 0 358.42-37.75 358.72-37.75 374.67 0 368.57 0 356.97-29.4 360.82-31.95 347.72 0ZM350.57-9L352.17-13.6 365.07-13.6 366.92-9 350.57-9Z" opacity="1" transform="matrix(1,0,0,1,0,0)" fill="#ffffff" class="undefined-text-0" data-fill-palette-color="primary" id="text-0"></path></svg></g></svg></g></svg></g></svg></g><g transform="matrix(1,0,0,1,140.9636110199889,0)"><svg viewBox="0 0 115.57037796002211 57.928034514439226" height="57.928034514439226" width="115.57037796002211"><g><svg xmlns="http://www.w3.org/2000/svg" xmlns:xlink="http://www.w3.org/1999/xlink" xml:space="preserve" style="shape-rendering:geometricPrecision;text-rendering:geometricPrecision;image-rendering:optimizeQuality;" viewBox="0.0000020265579223632812 0.0000027120113372802734 14.727499008178711 7.38195276260376" x="0" y="0" fill-rule="evenodd" clip-rule="evenodd" width="115.57037796002211" height="57.928034514439226" class="icon-icon-0" data-fill-palette-color="accent" id="icon-0"><g fill="#bf2051" data-fill-palette-color="accent"><path class="" d="M1.757 3.091c-0.313 0.444-0.296 1.331-0.417 1.95-0.153 0.784-0.711 1.203-1.34 1.534 0.188-0.771 0.348-1.542 0.412-2.313 0.078-0.953-0.06-0.891 0.767-1.575 1.159-0.961 3.04-1.741 5.848-2.29 2.456-0.406 5.049-0.453 7.701-0.351-0.89 1.809-3.733 1.961-7.203 1.581-1.811 0.02-3.495-0.488-5.768 1.464z m8.33 2.781c-3.895 2.038-7.803-2.284-9.165 0.688 2.104-1.831 5.079 3.183 9.165-0.688z m2.489-2.547c-4.49 2.72-9.502-0.792-10.907 1.859 3.412-1.235 7.765 2.753 10.907-1.859z m0.834-1.478c-3.944 1.761-10.043-1.402-11.565 2.239 3.106-1.808 8.446 1.438 11.565-2.239z" fill="#bf2051" data-fill-palette-color="accent"></path></g></svg></g></svg></g><g></g></svg></g><defs></defs></svg><rect width="395.52" height="131.4852256603802" fill="none" stroke="none" visibility="hidden"></rect></g></svg></g></svg>